<svg width="32" height="32" viewBox="0 0 32 32" fill="none" xmlns="http://www.w3.org/2000/svg">
  <defs>
    <linearGradient id="bgGradient" x1="0%" y1="0%" x2="100%" y2="100%">
      <stop offset="0%" style="stop-color:#3b82f6;stop-opacity:1" />
      <stop offset="100%" style="stop-color:#9333ea;stop-opacity:1" />
    </linearGradient>
  </defs>
  <!-- Background -->
  <rect width="32" height="32" rx="8" fill="url(#bgGradient)"/>
  
  <!-- Chat bubble icon -->
  <path d="M8 10C7.44772 10 7 10.4477 7 11V20C7 21.1046 7.89543 22 9 22H18L23.707 26.707C24.0676 27.0676 24.6325 27.1289 25.0603 26.8966C25.4881 26.6643 25.7071 26.1597 25.5857 25.6793L25 23H26C27.1046 23 28 22.1046 28 21V11C28 9.89543 27.1046 9 26 9H9C8.44772 9 8 9.44772 8 10Z" fill="white"/>
</svg>